<svg width="75" height="56" viewBox="0 0 75 56" fill="none" xmlns="http://www.w3.org/2000/svg">
<g clip-path="url(#clip0_6285_409)">
<path d="M71.3559 1.30786C71.919 4.82093 72.916 10.0277 72.6063 13.0206C65.3833 13.0206 58.1602 13.0206 50.9358 13.0206C49.5133 13.8531 49.762 16.4254 48.8521 17.7918H69.272C67.3174 22.12 65.0628 26.1345 62.6049 29.9388C57.3256 29.9388 52.0476 29.9388 46.7684 29.9388C45.0816 34.8245 42.3272 42.2787 43.8514 47.7244C37.8549 50.0129 32.3378 52.8017 26.7657 55.5333C20.1595 48.8183 12.5371 43.1598 1.76228 40.7841C-0.354786 27.5656 7.10021 20.6204 13.013 14.3223C12.9915 11.8869 11.1146 11.3816 10.9305 9.11551C14.6771 7.64706 20.8542 7.23639 23.4316 9.98413C24.9032 9.23 28.8268 9.13915 29.2667 10.8515C30.6379 10.1248 33.2142 7.45044 34.2674 9.11551C35.384 6.80831 35.7486 3.71835 36.7672 1.30786H71.3559ZM61.3545 27.7697C62.3862 22.8055 56.8284 23.9566 54.2701 21.2624C52.7614 21.571 52.2712 22.9412 50.5199 22.9972C49.3483 21.9033 48.2055 20.7796 46.3525 20.395C46.7029 15.6923 42.6525 15.5703 40.9347 13.0204C40.4374 14.0932 39.5084 14.7166 38.4348 15.1895C39.9507 19.6844 43.8194 21.7303 45.9353 25.6005C43.0338 28.942 42.6716 34.9276 38.4348 36.8789C38.3392 36.1111 38.8545 34.7075 37.6004 35.1443C34.9883 35.7639 34.1204 42.5425 36.7672 42.5189C36.2842 42.8835 35.6506 43.0913 34.6834 42.9532C34.4563 42.3223 35.1712 40.7106 34.2674 40.7841C33.953 42.1916 33.5764 43.5344 31.7665 43.3861C29.9625 42.2288 29.3134 39.867 28.0163 38.1806C28.6044 40.7493 29.452 43.0489 30.9332 44.6878C33.2094 44.9006 35.1198 43.4186 35.5167 45.9895C29.7569 53.3443 26.0366 40.0523 21.7651 40.3498C26.4765 42.6345 28.2446 53.0892 35.9339 48.1587C36.5316 46.8383 36.0092 45.5639 35.5167 44.2536C37.537 43.9922 37.3147 41.8021 37.6004 40.7841C39.2788 43.5616 35.9148 44.4042 36.7672 47.7244C38.5926 47.8887 38.9106 46.4849 40.5186 46.4227C41.2131 39.3381 43.102 33.4954 45.102 27.7697H61.3545ZM41.7678 30.8062C42.2305 28.1057 44.7159 27.5121 45.102 24.7333C41.3028 21.0236 38.6309 16.1416 33.8502 13.4536C32.8496 12.9048 34.0797 10.0339 33.0169 9.54982C31.9111 10.4234 30.6798 11.1664 29.2667 11.7189C28.1143 10.4234 24.9965 9.97417 23.0156 10.8515C21.5595 8.18715 14.9521 9.01471 11.7638 9.54982C12.3424 11.4053 13.6036 12.5514 13.8475 14.7553C10.9389 17.8017 8.27416 21.1007 5.51261 24.299C9.78883 22.4808 11.5677 16.4167 16.3472 16.4913C14.7202 16.1466 13.8379 12.758 14.2635 11.7189C16.829 12.4207 19.0131 15.1859 18.4309 17.7918C18.9797 16.627 19.5499 15.4858 20.0986 14.3223C18.2373 13.2222 16.3879 12.1109 15.0967 10.4172C17.7459 9.22377 21.4651 10.355 22.5984 12.1532C33.3684 10.8042 39.286 18.1838 43.8515 24.7333C42.3823 24.4707 40.4803 23.0272 39.2681 23.8659C38.717 26.3336 40.8103 26.3061 41.3518 26.468C43.8121 34.7522 32.4347 32.995 30.516 28.6371C29.6959 31.1148 27.0252 33.9608 27.183 36.0117C28.4419 34.1413 29.3277 31.8826 30.9332 30.3719C33.097 34.2856 43.5899 34.2919 43.0183 29.0715C42.6441 29.4547 42.3704 32.0892 41.7678 30.8062ZM39.6841 36.0117C40.0548 35.0958 40.9537 34.7299 40.9347 33.4095C38.0249 33.9223 35.0074 34.0144 33.0171 32.5411C33.096 34.9702 35.9161 34.4662 34.2675 37.7478C36.4959 37.1754 35.8216 33.5814 39.2682 34.2771C39.3386 34.9253 39.1187 35.8773 39.6841 36.0117ZM28.4323 20.3952C31.2895 22.828 33.5788 21.5923 35.5167 22.5642C35.5071 19.6746 30.8328 19.3523 28.4323 20.3952ZM32.1837 49.8935C29.4437 50.2879 28.0701 49.2588 27.183 47.7244C27.1005 49.4007 27.1675 50.9214 27.599 52.0625C29.6051 51.8373 30.8687 50.8392 32.1837 49.8935ZM19.2642 38.1807C15.355 36.1772 13.7805 31.7434 13.4303 26.035C11.5235 32.4638 15.2844 37.9928 19.2642 38.1807ZM8.8468 24.7333C10.0327 24.3774 10.9616 23.7539 11.3465 22.5642C5.35481 24.2804 3.30098 30.0943 3.4289 38.1807C3.49943 38.8305 3.27946 39.7823 3.84492 39.9155C3.84492 39.1937 3.84492 38.4695 3.84492 37.7477C4.22748 32.0705 6.151 28.0012 8.8468 24.7333Z" fill="black"/>
<path d="M54.2701 21.2627C56.8283 23.9569 62.3862 22.8058 61.3545 27.77C55.9366 27.77 50.5199 27.77 45.102 27.77C43.1021 33.4957 41.2132 39.3384 40.5186 46.423C38.9107 46.4852 38.5927 47.889 36.7672 47.7247C35.9148 44.4045 39.2789 43.562 37.6004 40.7844C37.3147 41.8024 37.5371 43.9925 35.5167 44.2539C36.0092 45.5642 36.5317 46.8387 35.9339 48.159C28.2446 53.0895 26.4765 42.6348 21.7651 40.3501C26.0366 40.0526 29.7569 53.3446 35.5167 45.9898C35.1198 43.4189 33.2094 44.9009 30.9332 44.6881C29.4521 43.0492 28.6045 40.7496 28.0163 38.1809C29.3134 39.8673 29.9625 42.2291 31.7665 43.3864C33.5764 43.5345 33.953 42.1918 34.2674 40.7844C35.1712 40.7109 34.4563 42.3224 34.6835 42.9535C35.6506 43.0915 36.2842 42.8837 36.7672 42.5192C34.1204 42.5428 34.9883 35.7643 37.6004 35.1446C38.8545 34.7078 38.3392 36.1115 38.4349 36.8792C42.6716 34.928 43.0339 28.9423 45.9353 25.6008C43.8194 21.7306 39.9507 19.6848 38.4349 15.1898C39.5084 14.7169 40.4373 14.0935 40.9347 13.0208C42.6525 15.5706 46.7029 15.6926 46.3525 20.3953C48.2055 20.7799 49.3485 21.9036 50.5199 22.9975C52.2713 22.9415 52.7615 21.5713 54.2701 21.2627Z" fill="white"/>
<path d="M45.1021 24.7334C44.7161 27.5122 42.2306 28.1058 41.7679 30.8062C42.3704 32.0894 42.6442 29.4549 43.0184 29.0716C43.5898 34.2919 33.0971 34.2857 30.9333 30.3719C29.3278 31.8828 28.4419 34.1414 27.1831 36.0118C27.0253 33.961 29.696 31.1149 30.5161 28.6372C32.4348 32.9952 43.8122 34.7524 41.3519 26.4681C40.8105 26.3062 38.7171 26.3337 39.2682 23.866C40.4804 23.0272 42.3824 24.4707 43.8516 24.7334C39.2861 18.1838 33.3685 10.8043 22.5984 12.1533C21.4651 10.355 17.746 9.22385 15.0968 10.4173C16.3879 12.111 18.2373 13.2222 20.0987 14.3223C19.55 15.4859 18.9797 16.627 18.431 17.7918C19.0132 15.186 16.8291 12.4208 14.2636 11.719C13.838 12.7581 14.7203 16.1467 16.3473 16.4914C11.5678 16.4167 9.78892 22.4809 5.5127 24.299C8.27425 21.1008 10.939 17.8018 13.8476 14.7554C13.6037 12.5515 12.3425 11.4054 11.7638 9.54989C14.9522 9.01478 21.5596 8.18722 23.0157 10.8516C24.9966 9.97425 28.1144 10.4235 29.2668 11.719C30.6799 11.1664 31.9112 10.4235 33.017 9.54989C34.0798 10.034 32.8497 12.9049 33.8503 13.4537C38.631 16.1417 41.3029 21.0237 45.1021 24.7334Z" fill="white"/>
<path d="M40.9346 33.4095C40.9536 34.7299 40.0547 35.0957 39.684 36.0116C39.1187 35.8772 39.3385 34.9254 39.2681 34.277C35.8216 33.5812 36.4958 37.1753 34.2674 37.7478C35.916 34.4662 33.0959 34.9702 33.017 32.541C35.0074 34.0143 38.0248 33.9222 40.9346 33.4095Z" fill="white"/>
<path d="M35.5168 22.5644C33.5789 21.5925 31.2896 22.8282 28.4324 20.3953C30.8329 19.3525 35.5072 19.6748 35.5168 22.5644Z" fill="white"/>
<path d="M27.1831 47.7244C28.0701 49.2588 29.4437 50.2879 32.1837 49.8934C30.8687 50.8393 29.6051 51.8373 27.5991 52.0626C27.1675 50.9213 27.1006 49.4006 27.1831 47.7244Z" fill="white"/>
<path d="M13.4303 26.0352C13.7805 31.7434 15.355 36.1774 19.2642 38.1809C15.2845 37.993 11.5235 32.464 13.4303 26.0352Z" fill="white"/>
<path d="M11.3466 22.5642C10.9616 23.7539 10.0327 24.3774 8.84682 24.7333C6.15102 28.0012 4.2275 32.0705 3.84495 37.7477V39.9155C3.27949 39.7823 3.49945 38.8303 3.42892 38.1807C3.30101 30.0943 5.35483 24.2803 11.3466 22.5642Z" fill="white"/>
<path d="M70.7025 11.1826L69.1479 3.65097L38.6796 3.6272L35.8406 13.1721L37.6875 14.455L40.8532 11.8215L41.6447 11.6863L43.4914 13.9822L44.9425 14.1174L47.4971 17.0208L49.4474 11.2502L70.7025 11.1826Z" fill="#572987"/>
<path d="M63.3473 24.613L63.8951 24.6535L66.7923 19.315L48.5106 19.2744L50.8596 21.8009L53.4039 19.9264L55.3222 19.8451L56.8095 20.2525L59.2366 22.2494L61.1158 22.0865L63.3473 24.613Z" fill="#572987"/>
<path d="M62.4544 27.7909L63.3959 26.0348L61.0027 23.2167L59.1587 23.2984L56.6085 21.1746L55.3137 20.8479L53.7052 20.8071L50.9411 22.8837L47.8982 19.4184L46.8391 19.3776L47.1921 18.234L44.6027 15.2117L43.0044 14.9474L41.3799 12.5405L38.0897 15.0893L46.0151 24.7687L46.4857 27.6686L62.4544 27.7909Z" fill="white"/>
</g>
<defs>
<clipPath id="clip0_6285_409">
<rect width="74" height="56" fill="white" transform="translate(0.5)"/>
</clipPath>
</defs>
</svg>
